<?xml version="1.0" standalone="no"?>
<!DOCTYPE svg PUBLIC "-//W3C//DTD SVG 20010904//EN"
 "http://www.w3.org/TR/2001/REC-SVG-20010904/DTD/svg10.dtd">
<svg version="1.0" xmlns="http://www.w3.org/2000/svg"
 width="512.000000pt" height="512.000000pt" viewBox="0 0 512.000000 512.000000"
 preserveAspectRatio="xMidYMid meet">
<metadata>
Created by potrace 1.14, written by Peter Selinger 2001-2017
</metadata>
<g transform="translate(0.000000,512.000000) scale(0.100000,-0.100000)"
fill="#000000" stroke="none">
<path d="M1465 4612 c-34 -7 -81 -49 -100 -88 -17 -36 -17 -82 -1 -164 6 -31
46 -253 46 -256 0 -1 -17 -8 -37 -15 -57 -18 -184 -82 -238 -119 -26 -18 -80
-61 -121 -97 l-74 -64 -142 99 c-145 101 -189 122 -243 115 -79 -11 -143 -98
-131 -179 3 -25 14 -56 23 -68 10 -13 84 -70 165 -127 l146 -102 -18 -46 c-43
-109 -50 -129 -64 -186 -22 -88 -25 -111 -31 -210 -4 -49 -9 -93 -13 -97 -4
-3 -23 -9 -42 -12 -19 -3 -73 -12 -120 -21 -47 -8 -98 -17 -115 -20 -73 -13
-86 -18 -117 -48 -44 -41 -58 -75 -53 -127 6 -60 34 -101 85 -128 45 -23 82
-25 170 -7 42 8 249 45 254 45 2 0 10 -17 16 -37 7 -21 33 -77 57 -125 l45
-88 -48 -50 c-113 -118 -207 -289 -250 -455 -34 -131 -40 -328 -13 -451 89
-409 366 -703 764 -811 l100 -28 930 -2 c548 -1 957 2 995 8 36 5 79 11 95 14
88 13 264 67 360 111 483 222 806 658 879 1186 14 96 14 301 1 398 -50 382
-266 763 -560 989 -22 17 -46 36 -54 42 -28 24 -195 121 -259 150 -71 32 -194
76 -252 89 -19 5 -46 11 -60 14 -116 28 -376 42 -480 25 -30 -5 -80 -11 -110
-15 -30 -3 -71 -12 -92 -20 l-38 -13 -31 42 c-34 49 -45 62 -112 139 l-49 57
98 138 c54 76 103 153 109 172 29 82 -20 178 -104 201 -102 28 -131 8 -276
-200 -48 -69 -89 -127 -91 -129 -2 -2 -9 0 -16 6 -20 15 -146 60 -217 78 -79
20 -104 24 -211 31 -47 4 -88 9 -92 13 -3 3 -9 22 -12 41 -27 172 -59 316 -77
342 -34 47 -111 74 -174 60z m455 -787 c135 -27 307 -121 407 -222 93 -94 94
-95 25 -133 -261 -147 -482 -394 -621 -696 l-33 -71 -41 8 c-64 11 -274 3
-353 -14 -38 -9 -101 -28 -140 -42 -38 -14 -73 -27 -78 -28 -14 -3 -73 122
-96 207 -26 93 -35 256 -19 342 6 33 21 88 34 124 121 336 420 543 770 535 61
-2 126 -6 145 -10z m1425 -488 c44 -9 118 -29 165 -45 95 -32 240 -101 240
-114 0 -4 5 -8 11 -8 19 0 139 -98 214 -174 101 -102 168 -196 225 -314 33
-70 86 -231 95 -292 4 -25 9 -54 12 -65 2 -11 6 -73 7 -137 10 -392 -160 -744
-474 -985 -113 -86 -206 -134 -350 -181 -185 -60 -197 -61 -1175 -61 -954 0
-893 -3 -1055 45 -67 20 -188 103 -255 174 -22 23 -48 51 -57 61 -10 11 -18
22 -18 26 0 3 -6 14 -14 22 -33 39 -70 122 -97 221 -17 64 -19 253 -2 325 23
104 83 232 133 286 137 150 244 219 400 260 50 13 215 21 249 12 18 -4 21 -11
16 -32 -12 -56 -15 -226 -5 -256 31 -93 159 -133 240 -75 49 35 67 83 74 193
3 53 11 119 16 145 5 26 12 58 14 72 5 29 57 180 77 225 68 153 215 333 369
452 251 194 628 282 945 220z"/>
</g>
</svg>
